<?xml version="1.0" encoding="iso-8859-1"?>
<!-- Uploaded to: SVG Repo, www.svgrepo.com, Generator: SVG Repo Mixer Tools -->
<svg height="150px" width="150px" version="1.1" id="Layer_1" xmlns="http://www.w3.org/2000/svg" xmlns:xlink="http://www.w3.org/1999/xlink" 
	 viewBox="0 0 512 512" xml:space="preserve">
<circle style="fill:#FFD464;" cx="256" cy="256" r="256"/>
<path style="fill:#F2C95F;" d="M256,0c-4.024,0-8.02,0.116-12,0.304C379.816,6.576,488,118.632,488,256S379.816,505.428,244,511.696
	c3.98,0.188,7.976,0.304,12,0.304c141.392,0,256-114.608,256-256S397.392,0,256,0z"/>
<path id="SVGCleanerId_0" style="fill:#263740;" d="M204,208c-6.628,0-12-5.376-12-12c0-19.852-16.152-36-36-36s-36,16.148-36,36
	c0,6.624-5.372,12-12,12s-12-5.376-12-12c0-33.084,26.916-60,60-60s60,26.916,60,60C216,202.624,210.628,208,204,208z"/>
<path id="SVGCleanerId_1" style="fill:#263740;" d="M404,208c-6.628,0-12-5.376-12-12c0-19.852-16.152-36-36-36s-36,16.148-36,36
	c0,6.624-5.372,12-12,12s-12-5.376-12-12c0-33.084,26.916-60,60-60s60,26.916,60,60C416,202.624,410.628,208,404,208z"/>
<path id="SVGCleanerId_2" style="fill:#99602E;" d="M180,256c-60,0-128,84-160,28c8,48,156,152,232,96v-68C252,280,236,256,180,256z
	"/>
<path id="SVGCleanerId_3" style="fill:#805026;" d="M42.584,302.416C33.904,300.496,26.256,294.952,20,284
	c0.932,5.584,3.784,11.944,8.176,18.712C32.724,303.476,37.532,303.324,42.584,302.416z"/>
<path id="SVGCleanerId_4" style="fill:#805026;" d="M180,256c-1.98,0-3.968,0.1-5.96,0.276C221.936,259.032,236,282,236,312v36
	c0,20-28.872,46.704-45.484,47.848C213.104,397.304,234.468,392.92,252,380v-68C252,280,236,256,180,256z"/>
<path id="SVGCleanerId_5" style="fill:#99602E;" d="M324,256c60,0,128,84,160,28c-8,48-156,152-232,96v-68C252,280,268,256,324,256z
	"/>
<path id="SVGCleanerId_6" style="fill:#805026;" d="M459.824,302.712c-24.632,37.94-98.404,89.012-162.34,93.136
	C375.6,401.236,477.408,323.584,484,284C477.364,295.612,469.164,301.14,459.824,302.712z"/>
<path id="SVGCleanerId_7" style="fill:#805026;" d="M445.416,302.416C410.82,296.164,365.5,256,324,256
	c-3.5,0-6.844,0.092-10.04,0.276C360.624,260.364,411.164,309.988,445.416,302.416z"/>
<circle style="fill:#FFC200;" cx="256" cy="256" r="256"/>
<path style="fill:#F2B800;" d="M256,0c-6.74,0-13.392,0.34-20,0.852C368.028,11.068,472,121.348,472,256
	S368.028,500.932,236,511.148c6.608,0.512,13.26,0.852,20,0.852c141.392,0,256-114.608,256-256S397.392,0,256,0z"/>
<g>
	<path id="SVGCleanerId_0_1_" style="fill:#263740;" d="M204,208c-6.628,0-12-5.376-12-12c0-19.852-16.152-36-36-36
		s-36,16.148-36,36c0,6.624-5.372,12-12,12s-12-5.376-12-12c0-33.084,26.916-60,60-60s60,26.916,60,60
		C216,202.624,210.628,208,204,208z"/>
</g>
<g>
	<path id="SVGCleanerId_1_1_" style="fill:#263740;" d="M404,208c-6.628,0-12-5.376-12-12c0-19.852-16.152-36-36-36
		s-36,16.148-36,36c0,6.624-5.372,12-12,12s-12-5.376-12-12c0-33.084,26.916-60,60-60s60,26.916,60,60
		C416,202.624,410.628,208,404,208z"/>
</g>
<g>
	<path id="SVGCleanerId_2_1_" style="fill:#99602E;" d="M180,256c-60,0-128,84-160,28c8,48,156,152,232,96v-68
		C252,280,236,256,180,256z"/>
</g>
<g>
	<path id="SVGCleanerId_3_1_" style="fill:#805026;" d="M42.584,302.416C33.904,300.496,26.256,294.952,20,284
		c0.932,5.584,3.784,11.944,8.176,18.712C32.724,303.476,37.532,303.324,42.584,302.416z"/>
</g>
<g>
	<path id="SVGCleanerId_4_1_" style="fill:#805026;" d="M180,256c-1.98,0-3.968,0.1-5.96,0.276C221.936,259.032,236,282,236,312v36
		c0,20-28.872,46.704-45.484,47.848C213.104,397.304,234.468,392.92,252,380v-68C252,280,236,256,180,256z"/>
</g>
<g>
	<path id="SVGCleanerId_5_1_" style="fill:#99602E;" d="M324,256c60,0,128,84,160,28c-8,48-156,152-232,96v-68
		C252,280,268,256,324,256z"/>
</g>
<g>
	<path id="SVGCleanerId_6_1_" style="fill:#805026;" d="M459.824,302.712c-24.632,37.94-98.404,89.012-162.34,93.136
		C375.6,401.236,477.408,323.584,484,284C477.364,295.612,469.164,301.14,459.824,302.712z"/>
</g>
<g>
	<path id="SVGCleanerId_7_1_" style="fill:#805026;" d="M445.416,302.416C410.82,296.164,365.5,256,324,256
		c-3.5,0-6.844,0.092-10.04,0.276C360.624,260.364,411.164,309.988,445.416,302.416z"/>
</g>
</svg>